<?xml version="1.0" standalone="no"?>
<!DOCTYPE svg PUBLIC "-//W3C//DTD SVG 20010904//EN"
 "http://www.w3.org/TR/2001/REC-SVG-20010904/DTD/svg10.dtd">
<svg version="1.0" xmlns="http://www.w3.org/2000/svg"
 width="512.000000pt" height="512.000000pt" viewBox="0 0 512.000000 512.000000"
 preserveAspectRatio="xMidYMid meet">
<metadata>
Created by potrace 1.13, written by Peter Selinger 2001-2015
</metadata>
<g transform="translate(0.000000,512.000000) scale(0.100000,-0.100000)"
fill="#000000" stroke="none">
<path d="M1380 3456 c23 -22 1189 -916 1195 -916 4 0 901 685 1194 912 23 18
-9 18 -1190 18 -1039 0 -1211 -2 -1199 -14z"/>
<path d="M1340 2574 l0 -629 355 355 c274 274 352 357 342 366 -6 6 -160 125
-342 264 -181 139 -336 257 -342 263 -10 7 -13 -118 -13 -619z"/>
<path d="M3452 2927 l-353 -271 353 -353 353 -353 3 316 c1 173 1 454 0 623
l-3 308 -353 -270z"/>
<path d="M1794 2079 l-439 -439 1220 0 1220 0 -435 435 c-239 239 -439 435
-443 435 -5 0 -80 -55 -168 -122 -88 -68 -165 -124 -172 -125 -6 -2 -87 55
-178 126 l-166 129 -439 -439z"/>
</g>
</svg>
